<svg version="1.0" xmlns="http://www.w3.org/2000/svg"
 width="1000" height="1000" viewBox="0 0 1000 1000"
 preserveAspectRatio="xMidYMid meet">
<g transform="translate(0,1000) scale(0.1,-0.1)"
fill="#C05775" stroke="none">
<path d="M4283 6485 c-215 -60 -369 -240 -348 -405 6 -49 -8 -148 -26 -179 -5
-9 -31 -65 -59 -125 -59 -127 -57 -142 18 -107 62 29 108 71 188 173 59 74 71
84 136 111 80 34 131 80 179 163 17 30 40 61 52 69 114 80 281 -57 264 -219
-14 -134 -103 -243 -457 -556 -308 -273 -397 -366 -467 -486 -110 -187 -108
-420 4 -611 40 -69 146 -177 218 -222 78 -50 121 -68 215 -94 71 -19 107 -21
731 -24 l656 -4 79 73 c185 170 550 544 665 683 68 83 134 161 146 175 20 21
32 60 19 60 -2 0 -37 -16 -78 -35 -90 -42 -192 -60 -282 -50 -70 7 -81 18 -46
48 36 30 25 44 -38 49 -32 2 -79 14 -106 28 -61 29 -196 120 -196 131 0 5 34
52 75 105 42 53 74 101 72 107 -2 6 -38 9 -87 8 -61 -1 -128 7 -240 29 -321
65 -508 46 -720 -73 -207 -116 -344 -280 -617 -739 -15 -27 -31 -48 -35 -48
-13 0 -38 102 -38 154 0 64 21 134 62 205 27 50 46 75 123 170 15 19 274 306
340 377 174 188 243 300 276 449 23 102 23 126 0 224 -41 173 -147 297 -311
366 -57 24 -81 28 -190 31 -89 3 -140 0 -177 -11z m287 -9 c300 -72 460 -371
359 -669 -44 -127 -77 -174 -308 -431 -136 -151 -169 -184 -160 -158 3 8 141
162 209 232 67 69 193 240 222 300 73 154 69 327 -11 480 -53 101 -201 207
-321 230 -70 13 -186 13 -252 -1 -126 -27 -276 -136 -317 -231 -23 -54 -33
-109 -23 -126 12 -19 88 11 124 49 37 39 58 33 24 -6 -30 -34 -29 -30 -13
-110 15 -72 31 -78 104 -42 59 30 94 64 129 125 48 85 99 122 164 122 69 0
154 -59 191 -132 23 -45 25 -172 5 -231 -31 -84 -129 -201 -307 -362 -24 -22
-71 -65 -105 -95 -33 -30 -98 -89 -144 -130 -128 -113 -190 -171 -227 -211
-49 -54 -109 -132 -116 -151 -4 -10 -11 -18 -17 -18 -12 0 7 33 66 111 43 57
217 224 404 389 58 51 166 154 241 229 111 112 142 149 172 210 32 63 37 83
37 140 -1 82 -35 151 -97 195 -55 38 -129 47 -173 19 -33 -21 -80 -79 -80
-100 0 -29 -106 -118 -169 -143 -53 -20 -72 -35 -113 -85 -112 -135 -132 -154
-189 -185 -32 -17 -59 -26 -59 -20 0 6 18 50 41 98 45 96 63 137 74 167 4 11
11 74 14 140 8 144 27 193 107 272 118 115 339 171 514 129z m-1 -31 c215 -51
361 -238 361 -462 0 -157 -67 -297 -231 -478 -89 -99 -216 -241 -269 -300
-138 -151 -234 -276 -268 -347 -13 -26 -30 -79 -38 -119 -24 -116 5 -214 101
-339 85 -111 287 -283 321 -274 11 3 31 -6 48 -21 16 -14 34 -25 39 -25 6 0 7
-3 4 -6 -4 -4 -25 6 -47 21 -22 15 -43 26 -46 23 -3 -3 26 -27 63 -54 54 -39
64 -49 48 -53 -11 -2 -99 -1 -195 2 -252 8 -360 39 -500 146 -170 130 -262
342 -232 535 24 157 91 272 244 422 100 98 135 130 289 264 41 35 146 136 234
225 133 132 166 172 195 230 32 64 35 78 35 156 0 78 -3 90 -30 134 -38 61
-88 101 -145 116 -90 24 -166 -12 -213 -99 -36 -66 -84 -115 -139 -142 -68
-33 -69 -31 -87 63 -8 43 -6 51 15 77 47 55 18 78 -34 27 -33 -32 -78 -57
-103 -57 -17 0 -9 61 16 114 83 175 337 274 564 221z m892 -1054 c24 -6 71
-16 104 -22 33 -6 82 -15 109 -21 27 -5 86 -8 132 -6 46 2 84 0 84 -4 0 -6
-115 -156 -129 -168 -3 -3 -12 -13 -20 -23 -16 -21 -18 -19 104 -100 94 -62
155 -87 213 -87 23 0 42 -3 42 -7 0 -4 -12 -19 -27 -35 -31 -32 -28 -37 24
-49 95 -22 228 -2 334 51 42 21 59 25 59 15 0 -7 -3 -15 -7 -17 -5 -1 -64 -70
-133 -153 -69 -82 -154 -181 -190 -220 -150 -161 -515 -512 -563 -542 -7 -4
117 121 274 277 274 274 407 415 397 425 -2 2 -26 -21 -52 -53 -55 -66 -345
-362 -462 -471 -43 -41 -102 -96 -130 -123 l-52 -48 -408 1 -409 0 -90 64
c-49 36 -112 79 -138 97 -51 34 -49 47 5 29 58 -19 259 -41 373 -41 188 0 389
33 575 94 234 76 511 237 722 418 32 27 62 47 67 43 11 -6 71 70 71 89 0 6 14
23 32 38 42 34 31 45 -22 24 -59 -23 -173 -31 -257 -17 l-71 12 -107 -89
c-235 -196 -496 -319 -800 -375 -246 -46 -656 -16 -858 62 -23 9 -29 8 -34 -5
-3 -9 0 -20 8 -26 12 -8 12 -9 -1 -6 -16 5 -85 128 -71 128 4 0 13 -11 19 -25
13 -28 32 -25 48 8 6 12 35 60 64 107 29 47 73 119 99 160 229 376 438 538
781 604 39 7 241 -2 291 -13z m-1001 -188 c0 -5 -17 -26 -38 -49 -98 -107
-182 -210 -182 -223 0 -5 -4 -11 -9 -13 -5 -1 -25 -34 -45 -73 -19 -38 -35
-62 -36 -53 0 9 4 19 9 22 5 3 12 17 15 31 10 40 93 156 201 280 69 80 85 95
85 78z m-693 -327 c-7 -14 -13 -23 -15 -21 -7 6 9 45 18 45 4 0 3 -11 -3 -24z
m2571 -47 c-21 -17 -35 -36 -31 -42 3 -6 1 -7 -6 -3 -7 5 -36 -14 -74 -47
-185 -163 -481 -348 -653 -410 -243 -87 -320 -105 -557 -128 -77 -8 -139 -8
-210 0 -271 28 -383 56 -441 108 -64 59 -120 123 -112 130 3 3 34 -2 68 -11
35 -10 126 -28 203 -41 186 -31 454 -30 614 4 275 57 474 145 691 304 52 38
116 90 142 114 l46 46 68 -13 c72 -14 222 -8 252 9 36 21 36 9 0 -20z m-2588
3 c0 -4 -4 -12 -9 -17 -12 -13 -35 -147 -36 -207 0 -32 -3 -42 -9 -31 -4 8 -5
36 -2 62 4 25 8 55 10 66 6 54 28 135 37 135 5 0 9 -4 9 -8z m397 -109 c-3
-10 -5 -2 -5 17 0 19 2 27 5 18 2 -10 2 -26 0 -35z m2124 23 c-33 -39 -351
-275 -351 -259 0 4 24 22 53 40 29 17 108 77 177 132 125 101 143 113 121 87z
m-2134 -98 c-3 -7 -5 -2 -5 12 0 14 2 19 5 13 2 -7 2 -19 0 -25z m15 -57 c2
-17 1 -28 -4 -25 -8 5 -12 54 -4 54 2 0 6 -13 8 -29z m-433 -83 c0 -31 -1 -31
-10 -10 -5 13 -7 28 -3 33 10 16 14 9 13 -23z m2186 -37 c-14 -13 -132 -76
-122 -66 7 9 118 74 127 75 2 0 0 -4 -5 -9z m-2136 -121 c0 -8 -11 8 -24 35
-13 28 -24 59 -24 70 0 11 11 -5 24 -35 13 -30 24 -62 24 -70z m564 -39 c-5
-7 -73 61 -85 84 -5 11 13 -2 40 -30 27 -27 47 -52 45 -54z m1437 85 c0 -2 -7
-7 -16 -10 -8 -3 -12 -2 -9 4 6 10 25 14 25 6z m-1912 -158 c14 -16 21 -28 14
-28 -15 0 -92 98 -92 117 0 9 12 -2 26 -23 14 -21 38 -51 52 -66z m507 44 c-3
-3 -11 0 -18 7 -9 10 -8 11 6 5 10 -3 15 -9 12 -12z m1020 -42 c-3 -5 -11 -10
-16 -10 -6 0 -7 5 -4 10 3 6 11 10 16 10 6 0 7 -4 4 -10z m-108 -26 c-3 -3
-12 -4 -19 -1 -8 3 -5 6 6 6 11 1 17 -2 13 -5z m-1333 -73 c-2 -3 -19 10 -37
28 l-32 34 37 -29 c20 -15 35 -30 32 -33z m819 42 c-7 -2 -19 -2 -25 0 -7 3
-2 5 12 5 14 0 19 -2 13 -5z m330 0 c-7 -2 -21 -2 -30 0 -10 3 -4 5 12 5 17 0
24 -2 18 -5z m-558 -33 c3 -5 2 -10 -4 -10 -5 0 -13 5 -16 10 -3 6 -2 10 4 10
5 0 13 -4 16 -10z m-480 -78 c-5 -5 -63 27 -71 39 -3 6 12 0 34 -12 22 -13 39
-25 37 -27z m42 -18 c-3 -3 -12 -4 -19 -1 -8 3 -5 6 6 6 11 1 17 -2 13 -5z
m73 -24 c13 -8 13 -10 -2 -10 -9 0 -20 5 -23 10 -8 13 5 13 25 0z m63 -17 c-7
-2 -21 -2 -30 0 -10 3 -4 5 12 5 17 0 24 -2 18 -5z m60 -10 c-7 -2 -21 -2 -30
0 -10 3 -4 5 12 5 17 0 24 -2 18 -5z"/>
<path d="M4013 6083 c-38 -13 -43 -18 -43 -46 -1 -56 -20 -120 -66 -216 -62
-131 -59 -148 14 -85 23 19 70 70 104 112 35 42 68 83 74 89 11 12 8 46 -9 93
-3 8 -8 27 -11 43 -7 30 -5 30 -63 10z m51 -15 c2 -7 9 -36 16 -65 l12 -52
-76 -92 c-74 -89 -123 -136 -131 -127 -3 2 16 50 41 106 31 70 48 121 51 162
5 53 9 60 32 69 37 13 51 13 55 -1z"/>
<path d="M5165 5384 c-161 -26 -316 -99 -459 -217 -39 -33 -164 -169 -194
-212 -15 -21 -61 -92 -88 -135 -16 -25 -33 -52 -39 -61 -5 -9 -19 -32 -29 -50
-10 -19 -41 -67 -68 -107 -26 -41 -48 -78 -48 -83 0 -5 -4 -9 -10 -9 -23 0 -8
-30 18 -36 15 -3 61 -14 102 -25 116 -28 240 -49 293 -49 43 0 55 5 105 48 99
83 156 118 374 230 234 121 295 166 473 346 114 116 245 271 245 290 0 3 -31
6 -68 6 -37 0 -135 14 -217 30 -143 29 -323 44 -390 34z m210 -13 c33 -5 122
-21 197 -35 76 -14 162 -26 193 -26 30 0 55 -3 55 -6 0 -20 -165 -212 -276
-320 -125 -122 -236 -199 -428 -295 -181 -92 -271 -147 -367 -225 -49 -40 -74
-54 -98 -54 -67 0 -391 67 -408 84 -5 5 93 168 194 324 162 251 291 381 463
466 30 15 62 31 71 36 17 9 159 47 199 53 48 8 145 7 205 -2z"/>
<path d="M5620 5014 c-166 -168 -275 -245 -510 -363 -188 -95 -380 -221 -380
-251 0 -12 200 -12 295 0 250 31 494 121 700 257 92 61 247 186 299 241 32 34
33 33 -43 52 -24 7 -56 19 -70 27 -64 39 -162 107 -167 114 -14 23 -46 2 -124
-77z m206 7 c62 -41 124 -74 154 -82 28 -7 50 -16 50 -20 0 -4 -39 -42 -87
-84 -315 -273 -649 -412 -1040 -431 -190 -9 -190 -8 -13 110 52 34 160 96 240
136 229 115 332 189 490 352 47 48 89 88 94 88 5 0 55 -31 112 -69z"/>
</g>
</svg>
